<svg width="126" height="48" viewBox="0 0 126 48" fill="none" xmlns="http://www.w3.org/2000/svg">
<rect x="21.6297" y="7.87799" width="28.9498" height="21.7124" transform="rotate(85 21.6297 7.87799)" fill="#C3E5FE"/>
<rect x="36.2148" y="1.89233" width="28.9498" height="21.7124" transform="rotate(95 36.2148 1.89233)" fill="#1A91F0"/>
<path fill-rule="evenodd" clip-rule="evenodd" d="M13.8367 8.55984L21.6303 7.87799L23.5522 29.8449L12.0625 28.8397L13.8367 8.55984Z" fill="white"/>
<path d="M54.2945 26H51.1901V10.1793H45.608V7.19424H59.8765V10.1793H54.2945V26ZM65.8053 26.3284C62.1337 26.3284 59.0293 23.1642 59.0293 19.1941C59.0293 15.224 62.1337 12.0599 65.8053 12.0599C69.4769 12.0599 72.5515 15.224 72.5515 19.1941C72.5515 23.1642 69.4769 26.3284 65.8053 26.3284ZM65.8053 23.5821C67.8949 23.5821 69.5963 21.7911 69.5963 19.1941C69.5963 16.627 67.8949 14.8359 65.8053 14.8359C63.686 14.8359 61.9845 16.627 61.9845 19.1941C61.9845 21.7911 63.686 23.5821 65.8053 23.5821ZM78.0939 30.8358H75.1387V12.3882H77.3476L77.885 13.9106H78.0342C78.4223 13.433 79.9148 12.0599 82.0939 12.0599C85.4371 12.0599 88.3625 15.0449 88.3625 19.1941C88.3625 23.3433 85.4371 26.3284 82.0939 26.3284C80.0043 26.3284 78.5417 25.0448 78.2432 24.5672H78.0939V30.8358ZM81.7655 23.5821C83.7058 23.5821 85.4073 21.7911 85.4073 19.1941C85.4073 16.5971 83.7058 14.8359 81.7655 14.8359C79.7954 14.8359 78.0939 16.5971 78.0939 19.1941C78.0939 21.7911 79.7954 23.5821 81.7655 23.5821ZM99.325 26.3284C94.4594 26.3284 90.3102 22.0896 90.3102 16.5971C90.3102 11.1046 94.4594 6.86588 99.325 6.86588C103.743 6.86588 106.758 10.1793 107.623 13.7315H104.4C103.803 11.7614 102.071 9.85093 99.325 9.85093C96.1907 9.85093 93.4146 12.6569 93.4146 16.5971C93.4146 20.5374 96.1907 23.3135 99.325 23.3135C102.101 23.3135 103.832 21.4329 104.519 19.4628H107.743C106.877 23.015 103.832 26.3284 99.325 26.3284ZM116.724 21.8209L121.829 7.19424H124.993L118.247 26H115.023L108.306 7.19424H111.62L116.724 21.8209Z" fill="white"/>
<path d="M61.388 43.6184C60.2985 43.6184 59.5522 42.9468 59.3582 42.693H59.2985L59.0298 43.4542H57.9254V34.0513H59.403V37.3647H59.4627C59.6268 37.1259 60.3582 36.4842 61.388 36.4842C63.0746 36.4842 64.5223 37.9767 64.5223 40.0513C64.5223 42.1259 63.0746 43.6184 61.388 43.6184ZM61.2238 42.2453C62.2089 42.2453 63.0447 41.3498 63.0447 40.0513C63.0447 38.7528 62.2089 37.8722 61.2238 37.8722C60.2388 37.8722 59.403 38.7528 59.403 40.0513C59.403 41.3498 60.2388 42.2453 61.2238 42.2453ZM68.3039 41.4841L70.0352 36.6483H71.5576L68.7367 43.8274C68.1098 45.4542 67.4531 45.9467 66.5875 45.9467C66.289 45.9467 66.0352 45.8721 65.8561 45.8124V44.4691C65.9905 44.5288 66.1397 44.5587 66.3337 44.5587C66.8412 44.5587 67.1695 44.3497 67.3934 43.693L67.5725 43.2602L64.886 36.6483H66.483L68.3039 41.4841ZM78.3558 43.6184C76.52 43.6184 74.9677 42.0363 74.9677 40.0513C74.9677 38.0662 76.52 36.4842 78.3558 36.4842C80.0423 36.4842 81.2214 37.8274 81.49 39.1558H80.0125C79.8632 38.6035 79.3259 37.8722 78.3558 37.8722C77.2961 37.8722 76.4453 38.7677 76.4453 40.0513C76.4453 41.3498 77.2961 42.2453 78.3558 42.2453C79.3259 42.2453 79.8632 41.499 80.0125 40.9468H81.49C81.2214 42.2751 80.0423 43.6184 78.3558 43.6184ZM85.2981 36.4842C86.9548 36.4842 88.0145 37.6035 88.0145 39.2453V43.4542H86.91L86.6413 42.693H86.5816C86.2981 43.0363 85.6563 43.6184 84.5817 43.6184C83.2533 43.6184 82.2981 42.708 82.2981 41.5886C82.2981 40.2304 83.5817 39.3647 85.4623 39.3647H86.5369V39.1408C86.5369 38.32 86.0294 37.8125 85.2831 37.8125C84.5369 37.8125 84.1638 38.2901 84.0742 38.7229H82.6115C82.716 37.5886 83.6563 36.4842 85.2981 36.4842ZM84.8802 42.3796C85.91 42.3796 86.5369 41.6632 86.5369 40.8572V40.4393H85.4623C84.313 40.4393 83.7757 40.8423 83.7757 41.4692C83.7757 41.9916 84.1638 42.3796 84.8802 42.3796ZM91.1173 43.4542H89.6397V36.6483H90.7441L91.0128 37.4095H91.0874C91.2815 37.1259 91.8934 36.4842 92.759 36.4842C92.9978 36.4842 93.162 36.4991 93.3411 36.5588V38.0214C93.1471 37.9767 92.968 37.9617 92.7292 37.9617C91.774 37.9617 91.1173 38.6185 91.1173 39.708V43.4542ZM100.279 39.902C100.279 40.2453 100.25 40.4841 100.205 40.6334H95.1751C95.3691 41.6632 96.0855 42.2901 97.0556 42.2901C97.8168 42.2901 98.2795 41.9169 98.5183 41.5736H100.056C99.6675 42.5587 98.5631 43.6184 97.0706 43.6184C95.19 43.6184 93.6825 42.0811 93.6825 40.0513C93.6825 38.0662 95.2348 36.4842 97.0407 36.4842C98.8616 36.4842 100.279 37.9767 100.279 39.902ZM97.0407 37.8125C96.1303 37.8125 95.3691 38.4692 95.1601 39.514H98.8616C98.6825 38.514 97.9661 37.8125 97.0407 37.8125ZM107.8 39.902C107.8 40.2453 107.771 40.4841 107.726 40.6334H102.696C102.89 41.6632 103.606 42.2901 104.577 42.2901C105.338 42.2901 105.8 41.9169 106.039 41.5736H107.577C107.188 42.5587 106.084 43.6184 104.591 43.6184C102.711 43.6184 101.203 42.0811 101.203 40.0513C101.203 38.0662 102.756 36.4842 104.562 36.4842C106.382 36.4842 107.8 37.9767 107.8 39.902ZM104.562 37.8125C103.651 37.8125 102.89 38.4692 102.681 39.514H106.382C106.203 38.514 105.487 37.8125 104.562 37.8125ZM110.59 43.4542H109.112V36.6483H110.217L110.486 37.4095H110.56C110.754 37.1259 111.366 36.4842 112.232 36.4842C112.471 36.4842 112.635 36.4991 112.814 36.5588V38.0214C112.62 37.9767 112.441 37.9617 112.202 37.9617C111.247 37.9617 110.59 38.6185 110.59 39.708V43.4542ZM113.717 43.6184C113.18 43.6184 112.777 43.2005 112.777 42.6781C112.777 42.1557 113.18 41.7378 113.717 41.7378C114.24 41.7378 114.658 42.1557 114.658 42.6781C114.658 43.2005 114.24 43.6184 113.717 43.6184ZM116.738 35.708C116.261 35.708 115.873 35.3349 115.873 34.8424C115.873 34.3349 116.261 33.9767 116.738 33.9767C117.216 33.9767 117.604 34.3349 117.604 34.8424C117.604 35.3349 117.216 35.708 116.738 35.708ZM117.47 43.4542H115.992V36.6483H117.47V43.4542ZM122.184 43.6184C120.348 43.6184 118.796 42.0363 118.796 40.0513C118.796 38.0662 120.348 36.4842 122.184 36.4842C124.02 36.4842 125.557 38.0662 125.557 40.0513C125.557 42.0363 124.02 43.6184 122.184 43.6184ZM122.184 42.2453C123.229 42.2453 124.079 41.3498 124.079 40.0513C124.079 38.7677 123.229 37.8722 122.184 37.8722C121.124 37.8722 120.274 38.7677 120.274 40.0513C120.274 41.3498 121.124 42.2453 122.184 42.2453Z" fill="#828BA2"/>
</svg>
